<svg width="141" height="18" viewBox="0 0 141 18" fill="none" xmlns="http://www.w3.org/2000/svg">
<path d="M11.489 18.0001V14.9779H8.95564C5.55564 14.9779 3.20008 12.6446 3.20008 9.40012C3.20008 6.11123 5.64453 3.68901 8.95564 3.68901H11.489V0.666789H8.95564C3.75564 0.666789 0.222304 4.13346 0.222304 9.15568C0.222304 14.1557 3.80008 18.0001 8.95564 18.0001H11.489ZM20.374 18.0001V14.9779H15.6629V0.666789H12.6629V18.0001H20.374ZM20.3414 18.0001H23.9414L31.3636 6.28901V18.0001H34.3636V2.04457C34.3636 1.13345 33.8747 0.533456 33.097 0.533456C32.4081 0.533456 31.7858 0.800122 31.3636 1.44457L20.3414 18.0001ZM42.4994 18.0001C46.0549 18.0001 48.4327 15.7557 48.4327 12.6446C48.4327 9.53346 46.1883 7.33346 43.0994 7.33346H41.3883C40.1661 7.33346 39.3216 6.53346 39.3216 5.46679C39.3216 4.48901 40.1216 3.68901 41.3883 3.68901H47.2994V0.666789H41.5438C38.3216 0.666789 36.1438 2.73346 36.1438 5.44457C36.1438 8.20012 38.2994 10.1557 41.1216 10.1557H42.4994C44.3661 10.1557 45.7216 11.1557 45.7216 12.5779C45.7216 14.0001 44.3661 14.9779 42.4994 14.9779H36.4327V18.0001H42.4994ZM56.3232 18.0001C59.8787 18.0001 62.2565 15.7557 62.2565 12.6446C62.2565 9.53346 60.0121 7.33346 56.9232 7.33346H55.2121C53.9898 7.33346 53.1454 6.53346 53.1454 5.46679C53.1454 4.48901 53.9454 3.68901 55.2121 3.68901H61.1232V0.666789H55.3676C52.1454 0.666789 49.9676 2.73346 49.9676 5.44457C49.9676 8.20012 52.1232 10.1557 54.9454 10.1557H56.3232C58.1898 10.1557 59.5454 11.1557 59.5454 12.5779C59.5454 14.0001 58.1898 14.9779 56.3232 14.9779H50.2565V18.0001H56.3232ZM66.9692 18.0001V0.666789H63.947V18.0001H66.9692ZM79.8049 18.0001V14.9779H77.2716C73.8716 14.9779 71.5161 12.6446 71.5161 9.40012C71.5161 6.11123 73.9605 3.68901 77.2716 3.68901H79.8049V0.666789H77.2716C72.0716 0.666789 68.5383 4.13346 68.5383 9.15568C68.5383 14.1557 72.1161 18.0001 77.2716 18.0001H79.8049ZM97.3614 18.0001V14.9779H94.828C91.428 14.9779 89.0725 12.6446 89.0725 9.40012C89.0725 6.11123 91.5169 3.68901 94.828 3.68901H97.3614V0.666789H94.828C89.628 0.666789 86.0947 4.13346 86.0947 9.15568C86.0947 14.1557 89.6725 18.0001 94.828 18.0001H97.3614ZM97.4464 18.0001H101.046L108.469 6.28901V18.0001H111.469V2.04457C111.469 1.13345 110.98 0.533456 110.202 0.533456C109.513 0.533456 108.891 0.800122 108.469 1.44457L97.4464 18.0001ZM121.004 12.3557C125.071 11.7112 126.36 8.88901 126.36 6.60012C126.36 2.75568 123.471 0.666789 119.827 0.666789H113.404V18.0001H116.427V3.68901H119.76C121.982 3.68901 123.227 4.68901 123.227 6.66679C123.227 8.7779 121.671 9.80012 118.471 10.0223C117.271 10.1112 116.671 10.6223 116.671 11.5779C116.671 12.089 116.96 12.5779 117.493 13.1335L122.093 18.0001H126.316L121.004 12.3557ZM134.188 18.0001C137.743 18.0001 140.121 15.7557 140.121 12.6446C140.121 9.53346 137.877 7.33346 134.788 7.33346H133.077C131.854 7.33346 131.01 6.53346 131.01 5.46679C131.01 4.48901 131.81 3.68901 133.077 3.68901H138.988V0.666789H133.232C130.01 0.666789 127.832 2.73346 127.832 5.44457C127.832 8.20012 129.988 10.1557 132.81 10.1557H134.188C136.054 10.1557 137.41 11.1557 137.41 12.5779C137.41 14.0001 136.054 14.9779 134.188 14.9779H128.121V18.0001H134.188Z" fill="#973639"/>
</svg>
